<svg xmlns="http://www.w3.org/2000/svg" width="234" height="60" viewBox="0 0 234 60"><rect x="0.5" y="4.5" width="233" height="51" rx="3" fill="#F4EEE6" stroke="#D9CFC3" stroke-width="1"/><rect x="12" y="14" width="22" height="6" rx="1" fill="#17191B"/><rect x="12" y="24" width="40" height="2.5" rx="1.25" fill="#B9B2AA"/><rect x="12" y="29" width="40" height="2.5" rx="1.25" fill="#B9B2AA"/><rect x="12" y="34" width="40" height="2.5" rx="1.25" fill="#B9B2AA"/><circle cx="14" cy="44" r="2.6" fill="#17191B"/><circle cx="22" cy="44" r="2.6" fill="#17191B"/><circle cx="30" cy="44" r="2.6" fill="#17191B"/><rect x="72" y="14" width="16" height="2.5" rx="1" fill="#17191B"/><rect x="72" y="21" width="20" height="2.5" rx="1.25" fill="#B9B2AA"/><rect x="72" y="26" width="20" height="2.5" rx="1.25" fill="#B9B2AA"/><rect x="72" y="31" width="20" height="2.5" rx="1.25" fill="#B9B2AA"/><rect x="106" y="14" width="16" height="2.5" rx="1" fill="#17191B"/><rect x="106" y="21" width="20" height="2.5" rx="1.25" fill="#B9B2AA"/><rect x="106" y="26" width="20" height="2.5" rx="1.25" fill="#B9B2AA"/><rect x="106" y="31" width="20" height="2.5" rx="1.25" fill="#B9B2AA"/><rect x="150" y="14" width="30" height="2.5" rx="1" fill="#17191B"/><rect x="150" y="22" width="72" height="10" rx="5" fill="#FFFFFF"/><rect x="198" y="23.5" width="22" height="7" rx="3.5" fill="#A9532F"/></svg>
