<svg xmlns="http://www.w3.org/2000/svg" width="234" height="60" viewBox="0 0 234 60"><rect x="0.5" y="4.5" width="233" height="51" rx="3" fill="#142033" stroke="#D8DEE8"/><rect x="0.5" y="4.5" width="233" height="20" rx="3" fill="#F3F6FA"/><rect x="10" y="12" width="70" height="5" rx="1" fill="#142033"/><rect x="170" y="10" width="26" height="8" rx="4" fill="#1570CC"/><rect x="200" y="10" width="26" height="8" rx="4" fill="#FFFFFF" stroke="#1570CC"/><rect x="12" y="32" width="16" height="2.5" rx="1" fill="#FFFFFF"/><rect x="12" y="39" width="20" height="2" rx="1" fill="#6C7891"/><rect x="12" y="44" width="20" height="2" rx="1" fill="#6C7891"/><rect x="12" y="49" width="20" height="2" rx="1" fill="#6C7891"/><rect x="64" y="32" width="16" height="2.5" rx="1" fill="#FFFFFF"/><rect x="64" y="39" width="20" height="2" rx="1" fill="#6C7891"/><rect x="64" y="44" width="20" height="2" rx="1" fill="#6C7891"/><rect x="64" y="49" width="20" height="2" rx="1" fill="#6C7891"/><rect x="116" y="32" width="16" height="2.5" rx="1" fill="#FFFFFF"/><rect x="116" y="39" width="20" height="2" rx="1" fill="#6C7891"/><rect x="116" y="44" width="20" height="2" rx="1" fill="#6C7891"/><rect x="116" y="49" width="20" height="2" rx="1" fill="#6C7891"/><rect x="168" y="32" width="16" height="2.5" rx="1" fill="#FFFFFF"/><rect x="168" y="39" width="20" height="2" rx="1" fill="#6C7891"/><rect x="168" y="44" width="20" height="2" rx="1" fill="#6C7891"/><rect x="168" y="49" width="20" height="2" rx="1" fill="#6C7891"/></svg>
