<svg xmlns="http://www.w3.org/2000/svg" width="234" height="60" viewBox="0 0 234 60"><rect x="0.5" y="4.5" width="233" height="51" rx="3" fill="#F4EEE6" stroke="#D9CFC3" stroke-width="1"/><circle cx="20" cy="15" r="4" fill="none" stroke="#A9532F" stroke-width="1"/><rect x="28" y="13" width="24" height="2.5" rx="1.25" fill="#B9B2AA"/><rect x="28" y="17" width="24" height="2.5" rx="1.25" fill="#B9B2AA"/><circle cx="76" cy="15" r="4" fill="none" stroke="#A9532F" stroke-width="1"/><rect x="84" y="13" width="24" height="2.5" rx="1.25" fill="#B9B2AA"/><rect x="84" y="17" width="24" height="2.5" rx="1.25" fill="#B9B2AA"/><circle cx="132" cy="15" r="4" fill="none" stroke="#A9532F" stroke-width="1"/><rect x="140" y="13" width="24" height="2.5" rx="1.25" fill="#B9B2AA"/><rect x="140" y="17" width="24" height="2.5" rx="1.25" fill="#B9B2AA"/><circle cx="188" cy="15" r="4" fill="none" stroke="#A9532F" stroke-width="1"/><rect x="196" y="13" width="24" height="2.5" rx="1.25" fill="#B9B2AA"/><rect x="196" y="17" width="24" height="2.5" rx="1.25" fill="#B9B2AA"/><rect x="0.5" y="26" width="233" height="0.8" rx="0" fill="#D9CFC3"/><rect x="12" y="34" width="22" height="6" rx="1" fill="#17191B"/><rect x="120" y="34" width="16" height="2.5" rx="1" fill="#17191B"/><rect x="120" y="41" width="20" height="2.5" rx="1.25" fill="#B9B2AA"/><rect x="120" y="46" width="20" height="2.5" rx="1.25" fill="#B9B2AA"/><rect x="120" y="51" width="20" height="2.5" rx="1.25" fill="#B9B2AA"/><rect x="156" y="34" width="16" height="2.5" rx="1" fill="#17191B"/><rect x="156" y="41" width="20" height="2.5" rx="1.25" fill="#B9B2AA"/><rect x="156" y="46" width="20" height="2.5" rx="1.25" fill="#B9B2AA"/><rect x="156" y="51" width="20" height="2.5" rx="1.25" fill="#B9B2AA"/><rect x="192" y="34" width="16" height="2.5" rx="1" fill="#17191B"/><rect x="192" y="41" width="20" height="2.5" rx="1.25" fill="#B9B2AA"/><rect x="192" y="46" width="20" height="2.5" rx="1.25" fill="#B9B2AA"/><rect x="192" y="51" width="20" height="2.5" rx="1.25" fill="#B9B2AA"/></svg>
