<svg xmlns="http://www.w3.org/2000/svg" width="140" height="60" viewBox="0 0 140 60"><rect x="0" y="0" width="140" height="60" rx="0" fill="#FFFFFF"/><rect x="8" y="14" width="40" height="13" rx="6.5" fill="#FFFFFF" stroke="#D8DEE8"/><circle cx="14.5" cy="20.5" r="4.5" fill="#DCE6F2"/><rect x="22" y="19" width="20" height="2.5" rx="1" fill="#142033"/><rect x="51" y="14" width="40" height="13" rx="6.5" fill="#FFFFFF" stroke="#D8DEE8"/><circle cx="57.5" cy="20.5" r="4.5" fill="#F1E4CB"/><rect x="65" y="19" width="20" height="2.5" rx="1" fill="#142033"/><rect x="94" y="14" width="40" height="13" rx="6.5" fill="#FFFFFF" stroke="#D8DEE8"/><circle cx="100.5" cy="20.5" r="4.5" fill="#E3E8EF"/><rect x="108" y="19" width="20" height="2.5" rx="1" fill="#142033"/><rect x="8" y="32" width="40" height="13" rx="6.5" fill="#FFFFFF" stroke="#D8DEE8"/><circle cx="14.5" cy="38.5" r="4.5" fill="#DCEBE3"/><rect x="22" y="37" width="20" height="2.5" rx="1" fill="#142033"/><rect x="51" y="32" width="40" height="13" rx="6.5" fill="#FFFFFF" stroke="#D8DEE8"/><circle cx="57.5" cy="38.5" r="4.5" fill="#DCE6F2"/><rect x="65" y="37" width="20" height="2.5" rx="1" fill="#142033"/><rect x="94" y="32" width="40" height="13" rx="6.5" fill="#FFFFFF" stroke="#D8DEE8"/><circle cx="100.5" cy="38.5" r="4.5" fill="#F1E4CB"/><rect x="108" y="37" width="20" height="2.5" rx="1" fill="#142033"/></svg>
