<svg xmlns="http://www.w3.org/2000/svg" width="140" height="60" viewBox="0 0 140 60"><rect x="0" y="0" width="140" height="60" rx="0" fill="#FFFFFF"/><rect x="8" y="6" width="16" height="2" rx="0" fill="#A9532F"/><rect x="8" y="11" width="44" height="5" rx="1" fill="#17191B"/><rect x="112" y="12" width="20" height="2.5" rx="1" fill="#17191B"/><rect x="8" y="22" width="29" height="22" rx="3" fill="#F4EEE6"/><rect x="8" y="46" width="20" height="2.5" rx="1" fill="#17191B"/><rect x="8" y="51" width="12" height="2.5" rx="1" fill="#A9532F"/><rect x="40" y="22" width="29" height="22" rx="3" fill="#E6D9C9"/><rect x="40" y="46" width="20" height="2.5" rx="1" fill="#17191B"/><rect x="40" y="51" width="12" height="2.5" rx="1" fill="#A9532F"/><rect x="72" y="22" width="29" height="22" rx="3" fill="#F4EEE6"/><rect x="72" y="46" width="20" height="2.5" rx="1" fill="#17191B"/><rect x="72" y="51" width="12" height="2.5" rx="1" fill="#A9532F"/><rect x="104" y="22" width="29" height="22" rx="3" fill="#E6D9C9"/><rect x="104" y="46" width="20" height="2.5" rx="1" fill="#17191B"/><rect x="104" y="51" width="12" height="2.5" rx="1" fill="#A9532F"/></svg>
