<svg xmlns="http://www.w3.org/2000/svg" width="140" height="60" viewBox="0 0 140 60"><rect x="0" y="0" width="140" height="60" rx="0" fill="#F3F6FA"/><rect x="8" y="6" width="60" height="22" rx="4" fill="#FFFFFF" stroke="#D8DEE8"/><rect x="11" y="9" width="18" height="16" rx="2" fill="#F3F6FA"/><rect x="33" y="11" width="24" height="2.5" rx="1" fill="#142033"/><rect x="33" y="17" width="12" height="2.5" rx="1" fill="#1570CC"/><rect x="54" y="19" width="11" height="5" rx="2.5" fill="#1570CC"/><rect x="72" y="6" width="60" height="22" rx="4" fill="#FFFFFF" stroke="#D8DEE8"/><rect x="75" y="9" width="18" height="16" rx="2" fill="#F3F6FA"/><rect x="97" y="11" width="24" height="2.5" rx="1" fill="#142033"/><rect x="97" y="17" width="12" height="2.5" rx="1" fill="#1570CC"/><rect x="118" y="19" width="11" height="5" rx="2.5" fill="#1570CC"/><rect x="8" y="31" width="60" height="22" rx="4" fill="#FFFFFF" stroke="#D8DEE8"/><rect x="11" y="34" width="18" height="16" rx="2" fill="#F3F6FA"/><rect x="33" y="36" width="24" height="2.5" rx="1" fill="#142033"/><rect x="33" y="42" width="12" height="2.5" rx="1" fill="#1570CC"/><rect x="54" y="44" width="11" height="5" rx="2.5" fill="#1570CC"/><rect x="72" y="31" width="60" height="22" rx="4" fill="#FFFFFF" stroke="#D8DEE8"/><rect x="75" y="34" width="18" height="16" rx="2" fill="#F3F6FA"/><rect x="97" y="36" width="24" height="2.5" rx="1" fill="#142033"/><rect x="97" y="42" width="12" height="2.5" rx="1" fill="#1570CC"/><rect x="118" y="44" width="11" height="5" rx="2.5" fill="#1570CC"/></svg>
