<svg xmlns="http://www.w3.org/2000/svg" width="140" height="60" viewBox="0 0 140 60"><rect x="0" y="0" width="140" height="60" rx="0" fill="#FFFFFF"/><rect x="8" y="4" width="40" height="4" rx="1" fill="#17191B"/><rect x="8" y="12" width="38" height="24" rx="3" fill="#B9B2AA"/><rect x="8" y="39" width="16" height="2" rx="0" fill="#A9532F"/><rect x="8" y="44" width="34" height="2.5" rx="1.25" fill="#17191B"/><rect x="8" y="48" width="34" height="2.5" rx="1.25" fill="#17191B"/><rect x="8" y="53" width="26" height="2" rx="0" fill="#B9B2AA"/><rect x="51" y="12" width="38" height="24" rx="3" fill="#E6D9C9"/><rect x="51" y="39" width="16" height="2" rx="0" fill="#A9532F"/><rect x="51" y="44" width="34" height="2.5" rx="1.25" fill="#17191B"/><rect x="51" y="48" width="34" height="2.5" rx="1.25" fill="#17191B"/><rect x="51" y="53" width="26" height="2" rx="0" fill="#B9B2AA"/><rect x="94" y="12" width="38" height="24" rx="3" fill="#B9B2AA"/><rect x="94" y="39" width="16" height="2" rx="0" fill="#A9532F"/><rect x="94" y="44" width="34" height="2.5" rx="1.25" fill="#17191B"/><rect x="94" y="48" width="34" height="2.5" rx="1.25" fill="#17191B"/><rect x="94" y="53" width="26" height="2" rx="0" fill="#B9B2AA"/></svg>
